<?xml version="1.0" encoding="utf-8"?>
<!-- Generator: Adobe Illustrator 24.3.0, SVG Export Plug-In . SVG Version: 6.00 Build 0)  -->
<svg version="1.1" id="Layer_1" xmlns="http://www.w3.org/2000/svg" xmlns:xlink="http://www.w3.org/1999/xlink" x="0px" y="0px"
	 viewBox="0 0 841.9 140" style="enable-background:new 0 0 841.9 140;" xml:space="preserve">
<style type="text/css">
	.st0{fill:#FFFFFF;}
	.st1{fill:#F9F9F9;}
</style>
<path class="st0" d="M206.2,88.1c0,0.8,0,1.4-0.1,1.9c-0.1,0.5-0.2,0.9-0.3,1.3c-0.1,0.3-0.3,0.6-0.5,0.7s-0.4,0.2-0.6,0.2h-29.6
	c-1,0-1.8-0.3-2.4-0.9c-0.6-0.6-0.8-1.5-0.8-2.6v-1.7c0-0.5,0-1,0.1-1.4c0.1-0.4,0.2-0.9,0.3-1.3s0.4-0.9,0.7-1.4
	c0.3-0.5,0.7-1.1,1.1-1.9l19.5-30.8h-19.3c-0.3,0-0.6-0.1-0.8-0.2c-0.2-0.1-0.4-0.4-0.5-0.7s-0.2-0.7-0.3-1.2s-0.1-1.1-0.1-1.8
	c0-0.8,0-1.4,0.1-2c0.1-0.5,0.2-1,0.3-1.3c0.1-0.3,0.3-0.5,0.5-0.7c0.2-0.1,0.5-0.2,0.8-0.2H202c1.1,0,1.8,0.3,2.4,0.8
	c0.5,0.5,0.8,1.3,0.8,2.3v1.9c0,0.7,0,1.3-0.1,1.8s-0.2,1-0.4,1.5c-0.2,0.5-0.4,1-0.7,1.5c-0.3,0.5-0.6,1.1-1.1,1.8l-19.1,30.3h21
	c0.5,0,0.9,0.3,1.1,0.9C206.1,85.5,206.2,86.5,206.2,88.1z"/>
<path class="st0" d="M248,88.1c0,0.8,0,1.4-0.1,1.9c-0.1,0.5-0.2,0.9-0.3,1.2c-0.1,0.3-0.3,0.5-0.5,0.7s-0.4,0.2-0.6,0.2h-25.2
	c-0.9,0-1.6-0.2-2.1-0.8s-0.9-1.3-0.9-2.4V45.3c0-1.1,0.3-2,0.9-2.5s1.3-0.8,2.1-0.8h25.1c0.2,0,0.4,0.1,0.6,0.2
	c0.2,0.1,0.3,0.3,0.5,0.7c0.1,0.3,0.2,0.7,0.3,1.2c0.1,0.5,0.1,1.1,0.1,1.9c0,0.7,0,1.3-0.1,1.8c-0.1,0.5-0.2,0.9-0.3,1.2
	c-0.1,0.3-0.3,0.5-0.5,0.7c-0.2,0.1-0.4,0.2-0.6,0.2h-17.9v12.2h15.2c0.2,0,0.4,0.1,0.6,0.2s0.4,0.4,0.5,0.7
	c0.1,0.3,0.2,0.7,0.3,1.2c0.1,0.5,0.1,1.1,0.1,1.8c0,0.8,0,1.4-0.1,1.8s-0.2,0.9-0.3,1.2c-0.1,0.3-0.3,0.5-0.5,0.6s-0.4,0.2-0.6,0.2
	h-15.2v14.1h18.1c0.2,0,0.4,0.1,0.6,0.2s0.4,0.4,0.5,0.7c0.1,0.3,0.2,0.7,0.3,1.2C248,86.7,248,87.3,248,88.1z"/>
<path class="st0" d="M298.3,77.1c0,1.8-0.2,3.4-0.7,4.8s-1.2,2.7-2,3.8s-1.9,2.1-3.1,2.9s-2.5,1.5-4,2c-1.5,0.5-3,0.9-4.6,1.1
	s-3.5,0.4-5.5,0.4H265c-0.9,0-1.6-0.2-2.1-0.8S262,90,262,88.9V45.3c0-1.1,0.3-2,0.9-2.5s1.3-0.8,2.1-0.8h12.6
	c3.1,0,5.7,0.3,7.8,0.8s3.9,1.3,5.4,2.3c1.5,1,2.6,2.4,3.4,4c0.8,1.6,1.2,3.5,1.2,5.6c0,1.2-0.2,2.3-0.5,3.4s-0.8,2-1.4,2.9
	c-0.6,0.9-1.3,1.7-2.2,2.3c-0.9,0.7-1.9,1.2-3,1.6c1.4,0.3,2.7,0.7,3.9,1.3c1.2,0.6,2.2,1.5,3.1,2.5c0.9,1,1.6,2.2,2.1,3.6
	C298,73.8,298.3,75.4,298.3,77.1z M285.1,56c0-1-0.1-1.9-0.5-2.7c-0.3-0.8-0.8-1.5-1.4-2c-0.6-0.5-1.4-0.9-2.4-1.2
	c-0.9-0.3-2.2-0.4-3.8-0.4H272v13h5.7c1.5,0,2.6-0.2,3.5-0.5c0.9-0.3,1.6-0.8,2.2-1.4c0.6-0.6,1-1.3,1.3-2.1
	C285,57.8,285.1,56.9,285.1,56z M287.7,77.4c0-1.2-0.2-2.2-0.6-3.1c-0.4-0.9-1-1.7-1.7-2.3s-1.7-1.1-2.9-1.4
	c-1.2-0.3-2.7-0.5-4.5-0.5h-6v14.2h7.4c1.4,0,2.6-0.2,3.6-0.4s1.8-0.7,2.5-1.3s1.3-1.3,1.7-2.2C287.5,79.5,287.7,78.5,287.7,77.4z"
	/>
<path class="st0" d="M348.6,90.8c0,0.3,0,0.5-0.1,0.7s-0.4,0.3-0.7,0.5s-1,0.2-1.7,0.3c-0.8,0.1-1.8,0.1-3.1,0.1c-1.1,0-2,0-2.6-0.1
	s-1.2-0.2-1.5-0.3c-0.4-0.1-0.6-0.3-0.8-0.5c-0.2-0.2-0.3-0.5-0.4-0.8l-4.5-11.2c-0.5-1.3-1.1-2.4-1.6-3.4s-1.1-1.8-1.7-2.4
	c-0.6-0.7-1.4-1.2-2.2-1.5c-0.8-0.3-1.8-0.5-2.9-0.5h-3.2v19c0,0.3-0.1,0.5-0.2,0.7s-0.5,0.4-0.8,0.5c-0.4,0.1-0.9,0.2-1.5,0.3
	c-0.6,0.1-1.5,0.1-2.5,0.1c-1,0-1.8,0-2.5-0.1s-1.2-0.2-1.6-0.3s-0.7-0.3-0.8-0.5s-0.2-0.4-0.2-0.7V45.3c0-1.1,0.3-2,0.9-2.5
	s1.3-0.8,2.1-0.8h13c1.3,0,2.4,0,3.3,0.1c0.9,0,1.6,0.1,2.3,0.2c2,0.3,3.8,0.8,5.5,1.5c1.6,0.7,3,1.6,4.1,2.7c1.1,1.1,2,2.5,2.6,4
	c0.6,1.5,0.9,3.3,0.9,5.3c0,1.7-0.2,3.2-0.6,4.6c-0.4,1.4-1,2.6-1.9,3.7c-0.8,1.1-1.9,2-3.1,2.8c-1.2,0.8-2.6,1.4-4.1,1.9
	c0.8,0.4,1.5,0.8,2.1,1.3s1.3,1.1,1.9,1.9s1.1,1.6,1.6,2.5s1,2,1.5,3.2l4.2,9.8c0.4,1,0.6,1.7,0.8,2.1
	C348.5,90.1,348.6,90.5,348.6,90.8z M335.5,56.8c0-1.7-0.4-3-1.1-4.2c-0.8-1.1-2-1.9-3.7-2.4c-0.5-0.1-1.1-0.2-1.8-0.3
	s-1.6-0.1-2.7-0.1h-4.6V64h5.2c1.5,0,2.7-0.2,3.8-0.5c1.1-0.3,2-0.8,2.7-1.5s1.3-1.4,1.6-2.3C335.3,58.9,335.5,57.9,335.5,56.8z"/>
<path class="st0" d="M402.1,88.3c0.3,0.9,0.5,1.7,0.6,2.2s0,0.9-0.3,1.2c-0.3,0.3-0.8,0.4-1.5,0.5s-1.7,0.1-3,0.1
	c-1.3,0-2.4,0-3.1-0.1c-0.7,0-1.3-0.1-1.7-0.2s-0.7-0.3-0.8-0.5c-0.1-0.2-0.3-0.5-0.4-0.8l-3.4-10.1h-18.8l-3.2,9.8
	c-0.1,0.4-0.2,0.7-0.4,0.9s-0.4,0.4-0.8,0.6c-0.4,0.1-0.9,0.2-1.6,0.3s-1.6,0.1-2.7,0.1c-1.2,0-2.1,0-2.8-0.1s-1.1-0.3-1.4-0.6
	c-0.3-0.3-0.4-0.7-0.3-1.3c0.1-0.5,0.3-1.3,0.6-2.2l15.5-44.3c0.2-0.4,0.3-0.8,0.5-1.1c0.2-0.3,0.5-0.5,1-0.6
	c0.5-0.1,1.1-0.2,1.9-0.3c0.8,0,1.9-0.1,3.2-0.1c1.5,0,2.7,0,3.6,0.1c0.9,0,1.6,0.1,2.1,0.3s0.9,0.3,1.1,0.6
	c0.2,0.3,0.4,0.7,0.6,1.2L402.1,88.3z M379.1,51.6L379.1,51.6l-7.1,21.2h14.2L379.1,51.6z"/>
<path class="st0" d="M452.4,67.5c0,2.8-0.4,5.5-1.1,7.9c-0.8,2.4-1.9,4.5-3.4,6.2c-1.5,1.7-3.4,3.1-5.6,4.1s-4.9,1.5-7.8,1.5
	c-2.9,0-5.4-0.4-7.5-1.3c-2.1-0.9-3.9-2.1-5.4-3.7c-1.4-1.6-2.5-3.6-3.2-5.9c-0.7-2.3-1-5-1-7.9c0-2.8,0.4-5.5,1.1-7.9
	c0.7-2.4,1.9-4.5,3.4-6.2c1.5-1.7,3.4-3.1,5.6-4c2.2-1,4.9-1.4,7.8-1.4c2.9,0,5.4,0.4,7.5,1.3c2.1,0.9,3.9,2.1,5.4,3.7
	s2.5,3.6,3.2,6C452,62,452.4,64.6,452.4,67.5z M445.7,67.9c0-1.9-0.2-3.7-0.5-5.4s-0.9-3.2-1.8-4.4s-1.9-2.3-3.3-3
	c-1.4-0.7-3.1-1.1-5.2-1.1c-1.9,0-3.6,0.3-4.9,1s-2.5,1.6-3.4,2.9c-0.9,1.2-1.6,2.7-2,4.4c-0.4,1.7-0.6,3.5-0.6,5.5
	c0,1.9,0.2,3.7,0.5,5.4c0.4,1.7,1,3.2,1.8,4.4c0.8,1.3,1.9,2.3,3.3,3c1.4,0.7,3.1,1.1,5.2,1.1c1.9,0,3.5-0.3,4.9-1
	c1.4-0.7,2.5-1.6,3.4-2.8c0.9-1.2,1.5-2.7,2-4.4C445.5,71.8,445.7,70,445.7,67.9z"/>
<path class="st0" d="M497.1,85.4c0,0.2,0,0.4-0.2,0.5c-0.1,0.1-0.3,0.3-0.5,0.4s-0.6,0.2-1,0.2s-0.9,0.1-1.6,0.1
	c-0.6,0-1.2,0-1.6-0.1s-0.7-0.1-1-0.2s-0.4-0.2-0.5-0.4c-0.1-0.1-0.2-0.3-0.2-0.5V64.9c0-2-0.2-3.6-0.5-4.8s-0.8-2.3-1.4-3.2
	s-1.4-1.6-2.3-2c-1-0.5-2-0.7-3.3-0.7c-1.6,0-3.2,0.6-4.8,1.7s-3.3,2.8-5.1,5v24.5c0,0.2,0,0.4-0.2,0.5c-0.1,0.1-0.3,0.3-0.5,0.4
	s-0.6,0.2-1,0.2s-1,0.1-1.6,0.1c-0.6,0-1.1,0-1.6-0.1c-0.4-0.1-0.8-0.1-1-0.2s-0.4-0.2-0.5-0.4s-0.1-0.3-0.1-0.5v-35
	c0-0.2,0-0.4,0.1-0.5s0.2-0.3,0.5-0.4c0.2-0.1,0.5-0.2,0.9-0.2c0.4,0,0.9-0.1,1.4-0.1c0.6,0,1,0,1.4,0.1c0.4,0,0.7,0.1,0.9,0.2
	c0.2,0.1,0.4,0.2,0.5,0.4c0.1,0.1,0.1,0.3,0.1,0.5V55c2-2.2,4-3.8,5.9-4.8s4-1.5,6-1.5c2.3,0,4.3,0.4,5.9,1.2
	c1.6,0.8,2.9,1.8,3.9,3.2c1,1.3,1.7,2.9,2.1,4.7c0.4,1.8,0.6,3.9,0.6,6.4L497.1,85.4L497.1,85.4z"/>
<path class="st0" d="M568.1,89.5c-0.2,0.6-0.4,1.1-0.6,1.5c-0.3,0.4-0.7,0.7-1.2,0.8c-0.5,0.2-1.2,0.3-2.1,0.4
	c-0.8,0.1-1.9,0.1-3.3,0.1c-1.5,0-2.7,0-3.5-0.1c-0.9-0.1-1.6-0.2-2.1-0.4c-0.5-0.2-0.9-0.5-1.1-0.8c-0.2-0.4-0.4-0.9-0.5-1.5
	l-8-31.7h-0.1l-7.6,31.7c-0.1,0.6-0.3,1.1-0.5,1.4s-0.6,0.7-1.1,0.9s-1.2,0.3-2,0.4c-0.9,0.1-2,0.1-3.4,0.1c-1.5,0-2.7,0-3.6-0.1
	c-0.9-0.1-1.6-0.2-2.1-0.4c-0.5-0.2-0.9-0.5-1.1-0.8c-0.2-0.4-0.4-0.9-0.6-1.5L512,45.9c-0.2-0.9-0.4-1.7-0.4-2.2
	c0-0.5,0.1-0.9,0.4-1.2c0.3-0.3,0.8-0.5,1.6-0.5c0.7-0.1,1.8-0.1,3.1-0.1c1.2,0,2.2,0,2.9,0.1s1.2,0.1,1.6,0.3s0.6,0.3,0.7,0.6
	s0.2,0.7,0.3,1.1l8.8,38.3h0l9.2-38c0.1-0.5,0.2-0.9,0.4-1.2s0.5-0.5,0.8-0.7c0.4-0.2,1-0.3,1.7-0.3c0.7-0.1,1.6-0.1,2.8-0.1
	c1.2,0,2.2,0,3,0.1c0.7,0,1.3,0.2,1.7,0.3c0.4,0.2,0.7,0.4,0.9,0.7s0.3,0.7,0.4,1.2l9.5,38h0.1l8.8-38.2c0.1-0.4,0.2-0.8,0.3-1.1
	c0.1-0.3,0.4-0.5,0.7-0.7c0.4-0.2,0.9-0.3,1.5-0.3c0.7-0.1,1.6-0.1,2.8-0.1c1.1,0,2,0,2.7,0.1c0.6,0.1,1.1,0.2,1.4,0.5
	c0.3,0.3,0.4,0.7,0.4,1.3c0,0.5-0.2,1.3-0.4,2.3L568.1,89.5z"/>
<path class="st0" d="M631.4,90.7c0,0.3-0.1,0.5-0.2,0.7s-0.5,0.4-0.8,0.5c-0.4,0.1-0.9,0.2-1.5,0.3c-0.7,0.1-1.5,0.1-2.4,0.1
	c-1,0-1.8,0-2.5-0.1s-1.2-0.2-1.5-0.3c-0.4-0.1-0.7-0.3-0.8-0.5c-0.2-0.2-0.2-0.4-0.2-0.7V70.5h-18.8v20.2c0,0.3-0.1,0.5-0.2,0.7
	c-0.2,0.2-0.4,0.4-0.8,0.5c-0.4,0.1-0.9,0.2-1.5,0.3c-0.7,0.1-1.5,0.1-2.5,0.1c-1,0-1.8,0-2.5-0.1s-1.2-0.2-1.6-0.3
	s-0.7-0.3-0.8-0.5c-0.2-0.2-0.2-0.4-0.2-0.7V43.5c0-0.3,0.1-0.5,0.2-0.7s0.5-0.4,0.8-0.5s0.9-0.2,1.6-0.3c0.7-0.1,1.5-0.1,2.5-0.1
	c1,0,1.8,0,2.5,0.1c0.7,0.1,1.2,0.2,1.5,0.3s0.7,0.3,0.8,0.5c0.2,0.2,0.2,0.4,0.2,0.7v18.3h18.8V43.5c0-0.3,0.1-0.5,0.2-0.7
	s0.4-0.4,0.8-0.5s0.9-0.2,1.5-0.3s1.5-0.1,2.5-0.1c1,0,1.8,0,2.4,0.1c0.7,0.1,1.2,0.2,1.5,0.3s0.7,0.3,0.8,0.5
	c0.2,0.2,0.2,0.4,0.2,0.7V90.7z"/>
<path class="st0" d="M677,88.1c0,0.8,0,1.4-0.1,1.9s-0.2,0.9-0.3,1.2s-0.3,0.5-0.5,0.7c-0.2,0.1-0.4,0.2-0.6,0.2h-25.2
	c-0.8,0-1.6-0.2-2.2-0.8s-0.9-1.3-0.9-2.4V45.3c0-1.1,0.3-2,0.9-2.5s1.3-0.8,2.2-0.8h25c0.2,0,0.4,0.1,0.6,0.2
	c0.2,0.1,0.3,0.3,0.5,0.7c0.1,0.3,0.2,0.7,0.3,1.2c0.1,0.5,0.1,1.1,0.1,1.9c0,0.7,0,1.3-0.1,1.8c-0.1,0.5-0.2,0.9-0.3,1.2
	s-0.3,0.5-0.5,0.7s-0.4,0.2-0.6,0.2h-17.9v12.2h15.2c0.2,0,0.5,0.1,0.6,0.2s0.3,0.4,0.5,0.7s0.2,0.7,0.3,1.2
	c0.1,0.5,0.1,1.1,0.1,1.8c0,0.8,0,1.4-0.1,1.8c-0.1,0.5-0.2,0.9-0.3,1.2s-0.3,0.5-0.5,0.6s-0.4,0.2-0.6,0.2h-15.2v14.1h18.1
	c0.2,0,0.5,0.1,0.6,0.2s0.4,0.4,0.5,0.7s0.2,0.7,0.3,1.2C676.9,86.7,677,87.3,677,88.1z"/>
<path class="st0" d="M720.6,88.1c0,0.8,0,1.4-0.1,1.9s-0.2,0.9-0.3,1.2s-0.3,0.5-0.5,0.7c-0.2,0.1-0.4,0.2-0.6,0.2h-25.2
	c-0.8,0-1.6-0.2-2.2-0.8s-0.9-1.3-0.9-2.4V45.3c0-1.1,0.3-2,0.9-2.5s1.3-0.8,2.2-0.8h25c0.2,0,0.4,0.1,0.6,0.2
	c0.2,0.1,0.3,0.3,0.5,0.7c0.1,0.3,0.2,0.7,0.3,1.2c0.1,0.5,0.1,1.1,0.1,1.9c0,0.7,0,1.3-0.1,1.8c-0.1,0.5-0.2,0.9-0.3,1.2
	s-0.3,0.5-0.5,0.7S719.2,50,719,50h-17.9v12.2h15.2c0.2,0,0.5,0.1,0.6,0.2s0.3,0.4,0.5,0.7s0.2,0.7,0.3,1.2c0.1,0.5,0.1,1.1,0.1,1.8
	c0,0.8,0,1.4-0.1,1.8c-0.1,0.5-0.2,0.9-0.3,1.2s-0.3,0.5-0.5,0.6s-0.4,0.2-0.6,0.2h-15.2v14.1h18.1c0.2,0,0.5,0.1,0.6,0.2
	s0.4,0.4,0.5,0.7s0.2,0.7,0.3,1.2C720.6,86.7,720.6,87.3,720.6,88.1z"/>
<path class="st0" d="M762.1,87.8c0,0.8,0,1.4-0.1,1.9c-0.1,0.5-0.2,1-0.3,1.3s-0.3,0.6-0.5,0.8c-0.2,0.2-0.4,0.2-0.7,0.2h-23
	c-0.8,0-1.6-0.2-2.2-0.8s-0.9-1.3-0.9-2.4V43.5c0-0.3,0.1-0.5,0.2-0.7s0.5-0.4,0.8-0.5s0.9-0.2,1.6-0.3c0.7-0.1,1.5-0.1,2.5-0.1
	c1,0,1.8,0,2.5,0.1c0.7,0.1,1.2,0.2,1.5,0.3s0.7,0.3,0.8,0.5c0.2,0.2,0.2,0.4,0.2,0.7v40.2h15.8c0.3,0,0.5,0.1,0.7,0.2
	s0.4,0.4,0.5,0.7c0.1,0.3,0.2,0.8,0.3,1.3C762.1,86.4,762.1,87,762.1,87.8z"/>
<path class="st0" d="M802.8,77.1c0,2.6-0.5,4.9-1.5,6.9s-2.3,3.6-4,5c-1.7,1.3-3.6,2.3-5.9,3s-4.7,1-7.2,1c-1.7,0-3.3-0.1-4.8-0.4
	c-1.5-0.3-2.8-0.6-3.9-1c-1.1-0.4-2.1-0.8-2.8-1.3c-0.8-0.4-1.3-0.8-1.7-1.2c-0.3-0.3-0.6-0.8-0.7-1.4c-0.1-0.6-0.2-1.5-0.2-2.7
	c0-0.8,0-1.5,0.1-2s0.1-1,0.2-1.3c0.1-0.3,0.3-0.6,0.5-0.7s0.4-0.2,0.7-0.2c0.4,0,0.9,0.2,1.5,0.6s1.5,0.9,2.5,1.4
	c1,0.5,2.3,1,3.7,1.4c1.4,0.4,3.1,0.6,5,0.6c1.2,0,2.3-0.2,3.3-0.4c1-0.3,1.8-0.7,2.5-1.3s1.2-1.2,1.6-2s0.5-1.7,0.5-2.7
	c0-1.1-0.3-2.1-0.9-2.9s-1.4-1.5-2.4-2.2c-1-0.6-2.1-1.2-3.4-1.8c-1.3-0.6-2.6-1.1-3.9-1.8c-1.3-0.6-2.7-1.3-3.9-2.1
	c-1.3-0.8-2.4-1.7-3.4-2.8s-1.8-2.4-2.4-3.9s-0.9-3.3-0.9-5.4c0-2.4,0.5-4.5,1.3-6.3s2.1-3.3,3.6-4.5c1.5-1.2,3.3-2.1,5.3-2.7
	c2-0.6,4.2-0.9,6.5-0.9c1.2,0,2.4,0.1,3.6,0.3s2.3,0.4,3.3,0.7s2,0.7,2.8,1s1.3,0.7,1.6,1c0.3,0.3,0.4,0.5,0.5,0.7s0.2,0.4,0.2,0.7
	c0.1,0.3,0.1,0.7,0.1,1.1s0,1,0,1.7c0,0.8,0,1.4-0.1,1.9c0,0.5-0.1,0.9-0.2,1.3s-0.2,0.6-0.4,0.7c-0.2,0.2-0.4,0.2-0.7,0.2
	s-0.7-0.2-1.4-0.5s-1.4-0.8-2.3-1.2c-0.9-0.4-2-0.8-3.1-1.2s-2.5-0.5-3.9-0.5c-1.1,0-2.1,0.1-2.9,0.4c-0.8,0.3-1.5,0.6-2.1,1.1
	c-0.6,0.5-1,1-1.2,1.7c-0.3,0.7-0.4,1.4-0.4,2.1c0,1.1,0.3,2.1,0.9,2.9s1.4,1.5,2.4,2.2s2.2,1.2,3.5,1.8c1.3,0.5,2.6,1.1,4,1.8
	s2.7,1.3,4,2.1c1.3,0.8,2.4,1.7,3.5,2.8c1,1.1,1.8,2.4,2.4,3.9C802.5,73.3,802.8,75.1,802.8,77.1z"/>
<g>
	<path class="st1" d="M105.6,64.5L35.6,33.7c-8.1,9-13.1,20.8-13.4,33.8l1.5,0.7L105.6,64.5z"/>
	<path class="st1" d="M74.4,120.4c10.1,0,19.6-2.9,27.6-7.9L23.1,77.8C27.5,102.1,48.8,120.4,74.4,120.4z"/>
	<path class="st1" d="M126.3,63.6c-2.5-26.5-24.8-47.1-51.9-47.1c-12,0-23,4-31.8,10.8l82.7,36.4L126.3,63.6z"/>
	<path class="st1" d="M42.5,76.4l67.7,29.8c8.9-8.4,14.8-19.8,16.1-32.6l-1.9-0.8L42.5,76.4z"/>
</g>
</svg>
